<?xml version="1.0" ?><svg xmlns:dc="http://purl.org/dc/elements/1.1/" xmlns:cc="http://creativecommons.org/ns#" xmlns:rdf="http://www.w3.org/1999/02/22-rdf-syntax-ns#" xmlns:svg="http://www.w3.org/2000/svg" xmlns="http://www.w3.org/2000/svg" xmlns:sodipodi="http://sodipodi.sourceforge.net/DTD/sodipodi-0.dtd" xmlns:inkscape="http://www.inkscape.org/namespaces/inkscape" width="4.2333331mm" height="4.2333331mm" viewBox="0 0 4.2333331 4.2333331" version="1.1" id="svg839"><defs id="defs833"/><g id="layer1" transform="translate(73.404884,-1.9651226)"><g id="g1564"><g id="g2161" transform="translate(0.04559286)"><g id="g2179" transform="translate(0,-0.00696941)"><g id="g2278"><g id="g2834" transform="translate(-0.1405508)"><g id="g2539" transform="translate(-92.518959,-0.32118853)"><g id="g2888" transform="translate(-0.264574)"><g id="g3038"><g id="g4157"><g id="g4215"><g id="g19701" transform="translate(0,6.1994001e-5)"><g id="g19799" transform="translate(0,-0.14051341)"><g id="g18433"><g id="g18382" transform="translate(-0.17625333)"><path style="fill:none;stroke:#000000;stroke-width:0.264583;stroke-linecap:round;stroke-linejoin:round;stroke-miterlimit:4;stroke-dasharray:none;paint-order:markers fill stroke" d="m 21.072631,3.1174863 c 0.2304,-0.061735 0.276219,-0.287913 0.276219,-0.287913 v 1.2441078" id="path18368"/><path style="fill:none;stroke:#000000;stroke-width:0.264583;stroke-linecap:round;stroke-linejoin:round;stroke-miterlimit:4;stroke-dasharray:none;paint-order:markers fill stroke" d="m 21.124393,4.1120224 h 0.42994" id="path18370"/></g><g id="g18388" transform="translate(1.7557235)"><path style="fill:none;stroke:#000000;stroke-width:0.264583;stroke-linecap:round;stroke-linejoin:round;stroke-miterlimit:4;stroke-dasharray:none;paint-order:markers fill stroke" d="m 21.072631,3.1174863 c 0.2304,-0.061735 0.276219,-0.287913 0.276219,-0.287913 v 1.2441078" id="path18384"/><path style="fill:none;stroke:#000000;stroke-width:0.264583;stroke-linecap:round;stroke-linejoin:round;stroke-miterlimit:4;stroke-dasharray:none;paint-order:markers fill stroke" d="m 21.124393,4.1120224 h 0.42994" id="path18386"/></g><path id="rect18390" style="fill:none;stroke:#000000;stroke-width:0.264583;stroke-linecap:round;stroke-linejoin:round;stroke-miterlimit:4;stroke-dasharray:none;paint-order:markers fill stroke" d="m 20.17124,2.8304467 c 0.167192,0 0.30179,0.1345985 0.30179,0.3017903 v 0.677995 c 0,0.1671919 -0.134598,0.3017904 -0.30179,0.3017904 -0.167192,0 -0.30179,-0.1345985 -0.30179,-0.3017904 V 3.132237 c 0,-0.1671918 0.134598,-0.3017903 0.30179,-0.3017903 z"/><path id="path18393" style="fill:none;stroke:#000000;stroke-width:0.264583;stroke-linecap:round;stroke-linejoin:round;stroke-miterlimit:4;stroke-dasharray:none;paint-order:markers fill stroke" d="m 22.103217,2.8304467 c 0.167192,0 0.30179,0.1345985 0.30179,0.3017903 v 0.677995 c 0,0.1671919 -0.134598,0.3017904 -0.30179,0.3017904 -0.167192,0 -0.30179,-0.1345985 -0.30179,-0.3017904 V 3.132237 c 0,-0.1671918 0.134598,-0.3017903 0.30179,-0.3017903 z"/><g id="g18405" transform="translate(-1.2013425,2.1581678)"><path style="fill:none;stroke:#000000;stroke-width:0.264583;stroke-linecap:round;stroke-linejoin:round;stroke-miterlimit:4;stroke-dasharray:none;paint-order:markers fill stroke" d="m 21.072631,3.1174863 c 0.2304,-0.061735 0.276219,-0.287913 0.276219,-0.287913 v 1.2441078" id="path18401"/><path style="fill:none;stroke:#000000;stroke-width:0.264583;stroke-linecap:round;stroke-linejoin:round;stroke-miterlimit:4;stroke-dasharray:none;paint-order:markers fill stroke" d="m 21.124393,4.1120224 h 0.42994" id="path18403"/></g><g id="g18411" transform="translate(0.72920847,2.1581678)"><path style="fill:none;stroke:#000000;stroke-width:0.264583;stroke-linecap:round;stroke-linejoin:round;stroke-miterlimit:4;stroke-dasharray:none;paint-order:markers fill stroke" d="m 21.072631,3.1174863 c 0.2304,-0.061735 0.276219,-0.287913 0.276219,-0.287913 v 1.2441078" id="path18407"/><path style="fill:none;stroke:#000000;stroke-width:0.264583;stroke-linecap:round;stroke-linejoin:round;stroke-miterlimit:4;stroke-dasharray:none;paint-order:markers fill stroke" d="m 21.124393,4.1120224 h 0.42994" id="path18409"/></g><path id="path18413" style="fill:none;stroke:#000000;stroke-width:0.264583;stroke-linecap:round;stroke-linejoin:round;stroke-miterlimit:4;stroke-dasharray:none;paint-order:markers fill stroke" d="m 21.077415,4.9886145 c 0.167192,0 0.30179,0.1345985 0.30179,0.3017903 v 0.677995 c 0,0.1671919 -0.134598,0.3017904 -0.30179,0.3017904 -0.167192,0 -0.30179,-0.1345985 -0.30179,-0.3017904 v -0.677995 c 0,-0.1671918 0.134598,-0.3017903 0.30179,-0.3017903 z"/><path id="path18415" style="fill:none;stroke:#000000;stroke-width:0.264583;stroke-linecap:round;stroke-linejoin:round;stroke-miterlimit:4;stroke-dasharray:none;paint-order:markers fill stroke" d="m 23.007966,4.9886145 c 0.167192,0 0.30179,0.1345985 0.30179,0.3017903 v 0.677995 c 0,0.1671919 -0.134598,0.3017904 -0.30179,0.3017904 -0.167192,0 -0.30179,-0.1345985 -0.30179,-0.3017904 v -0.677995 c 0,-0.1671918 0.134598,-0.3017903 0.30179,-0.3017903 z"/></g></g></g></g></g></g></g></g></g></g></g></g></g></g></svg>